<?xml version="1.0" encoding="UTF-8"?>
<svg id="LOGO_3" data-name="LOGO 3" xmlns="http://www.w3.org/2000/svg" viewBox="0 0 2160.17 1357.54">
  <defs>
    <style>
      .cls-1 {
        fill: #2e3436;
      }

      .cls-1, .cls-2, .cls-3, .cls-4 {
        stroke-miterlimit: 10;
      }

      .cls-1, .cls-3, .cls-4 {
        stroke: #000;
        stroke-width: 3px;
      }

      .cls-5, .cls-4 {
        fill: #2c558b;
      }

      .cls-6 {
        fill: #fff;
      }

      .cls-7 {
        letter-spacing: 0em;
      }

      .cls-8 {
        font-family: HankenGrotesk-Black, 'Hanken Grotesk';
        font-size: 264.51px;
        font-variation-settings: 'wght' 900;
      }

      .cls-9 {
        letter-spacing: 0em;
      }

      .cls-2 {
        fill: none;
        stroke: #636666;
        stroke-width: 7px;
      }

      .cls-3 {
        fill: #d8dbd4;
      }

      .cls-10 {
        letter-spacing: -.03em;
      }

      .cls-11 {
        fill: #5e5e5e;
        opacity: .33;
      }

      .cls-12 {
        fill: #0d0805;
      }

      .cls-13 {
        letter-spacing: 0em;
      }

      .cls-14 {
        fill: #efefef;
      }

      .cls-15 {
        letter-spacing: -.01em;
      }

      .cls-16 {
        fill: #c4c4c4;
      }
    </style>
  </defs>
  <g>
    <circle cx="558.61" cy="1057.65" r="260.94"/>
    <circle class="cls-16" cx="556.11" cy="1053.92" r="189.95"/>
    <circle class="cls-14" cx="556.11" cy="1053.92" r="173.75"/>
    <circle cx="558.61" cy="1057.65" r="260.94"/>
    <circle class="cls-16" cx="556.11" cy="1053.92" r="189.95"/>
    <circle class="cls-14" cx="556.11" cy="1053.92" r="173.75"/>
    <circle class="cls-2" cx="557.36" cy="1055.16" r="255.96"/>
    <circle class="cls-2" cx="557.36" cy="1055.16" r="255.96"/>
    <path class="cls-2" d="M543.22,819.66c-.64,1.2,4.06-8.98,37.18-19.21"/>
    <path class="cls-2" d="M494.03,826.58c-.12,1.07,.41-7.76,21.8-24.77"/>
    <path class="cls-2" d="M442.28,847.4c.12,1.07-1.35-7.65,15.67-29.04"/>
    <path class="cls-2" d="M385.45,888.15c.26,1.36-2.43-9.8,15.2-34.91"/>
    <path class="cls-2" d="M349.23,938.26c.69,1.2-5.51-8.47,2.93-37.97"/>
    <path class="cls-2" d="M331.55,991.33c1.03,.92-7.88-6.32-9.09-36.98"/>
    <path class="cls-2" d="M321.48,1039.87c1.2,.7-8.99-4.6-16.36-34.38"/>
    <path class="cls-2" d="M324.59,1099.04c1.31,.46-9.7-2.81-22.59-30.65"/>
    <path class="cls-2" d="M338.64,1157.52c1.37,.19-10.07-.81-28.26-25.52"/>
    <path class="cls-2" d="M370.73,1213.68c1.38,.08-10.1-.03-30.17-23.23"/>
    <path class="cls-2" d="M424.13,1259.57c1.36-.25-9.81,2.39-34.85-15.35"/>
    <path class="cls-2" d="M481.18,1292.85c1.3-.47-9.31,3.91-36.83-9.65"/>
    <path class="cls-2" d="M539.1,1303.45c1.16-.75-8.17,5.94-38.07-.93"/>
    <path class="cls-2" d="M640.28,844.57c-.59,1.12,3.8-8.4,34.78-17.97"/>
    <path class="cls-2" d="M595.44,829.63c-.59,1.12,3.8-8.4,34.78-17.97"/>
    <path class="cls-2" d="M681.39,873.22c-.59,1.12,3.8-8.4,34.78-17.97"/>
    <path class="cls-2" d="M717.51,901.87c-.59,1.12,3.8-8.4,34.78-17.97"/>
    <path class="cls-2" d="M746.16,945.46c-.59,1.12,3.8-8.4,34.78-17.97"/>
    <path class="cls-2" d="M763.59,989.06c-.59,1.12,3.8-8.4,34.78-17.97"/>
    <path class="cls-2" d="M778.54,1031.41c-.59,1.12,3.8-8.4,34.78-17.97"/>
    <path class="cls-2" d="M778.54,1084.96c-.59,1.12,3.8-8.4,34.78-17.97"/>
    <path class="cls-2" d="M773.56,1126.07c-.59,1.12,3.8-8.4,34.78-17.97"/>
    <path class="cls-2" d="M761.1,1169.66c-.59,1.12,3.8-8.4,34.78-17.97"/>
    <path class="cls-2" d="M731.21,1219.48c-.59,1.12,3.8-8.4,34.78-17.97"/>
    <path class="cls-2" d="M690.11,1265.57c-.59,1.12,3.8-8.4,34.78-17.97"/>
    <path class="cls-2" d="M641.53,1296.71c-.59,1.12,3.8-8.4,34.78-17.97"/>
    <path class="cls-2" d="M575.88,1302.74c-1.09,.66,7.57-5.26,39.07,2.39"/>
    <path class="cls-11" d="M621.51,900.09s-28.65,99.64-84.7,62.28c0,0-49.82-49.82-52.31-69.75,0,0-47.33,18.68-62.28,47.33,0,0,42.35,17.44,54.8,66.01,0,0,18.68,36.12-37.37,53.56l-59,16.25s6.69,51.01,22.88,68.44c0,0,82.35-49.55,110.31-17.3,0,0,28.85,57.16,4.74,102,0,0,43.14,8.72,80.51-2.49,0,0-27.4-77.22,9.96-107.12,0,0,37.37-19.93,102.13,24.91,0,0,22.42-44.84,23.67-74.73,0,0-88.43-1.25-99.64-48.58-11.21-47.33,53.56-87.19,53.56-87.19,0,0-44.14-41.1-60.68-41.1,0,0-4.09,0-6.58,7.47Z"/>
  </g>
  <g>
    <polygon class="cls-3" points="2097.37 1209.3 1992.62 1212.39 1993.08 1249.57 2099.6 1246.16 2097.37 1209.3"/>
    <path class="cls-4" d="M2000.72,1210.46l-.78,38.89s-2.32,11.86-22.25,9.18l-140.72,5.59s-13.77-.7-15.69-13.56l.93-42.45s2.22-9.98,17.76-7.54l141.68,.55s13.01-1.77,19.07,9.35Z"/>
    <path class="cls-1" d="M2107.1,1191.62s27.47-26.98-11.71-69.22c0,0-5.99-11.05,6.02-10.32,0,0,32.68,15.1,50.42,52.05,0,0,7.81,15.71,4.54,57.61,0,0,5.09,32.13-5.73,56.27,0,0-4.53,11.77-3.05,13.21,0,0,9.97,1.04,11.08,19.47,0,0-4.13,20.25-22.62,16.68l-29.66,.88s-11.46-2.19-13.73-13.39c0,0-7.36-19.63,15.69-26.07,0,0,3.91-14.68-1.13-19.6,0,0-10.02-5.7-15.88-17.79l-.55-45.37s3.2-11.02,16.33-14.41Z"/>
  </g>
  <text class="cls-8" transform="translate(897.26 972.15)"><tspan class="cls-5"><tspan x="0" y="0">Au</tspan><tspan class="cls-7" x="336.98" y="0">t</tspan><tspan class="cls-13" x="435.12" y="0">o</tspan></tspan><tspan class="cls-15" x="0" y="317.41">w</tspan><tspan class="cls-9" x="197.59" y="317.41">or</tspan><tspan class="cls-10" x="464.21" y="317.41">k</tspan><tspan x="608.37" y="317.41">er</tspan></text>
  <g>
    <polygon class="cls-12" points="1577.64 715.53 1580.19 702.61 1670.89 721.55 1667.27 734.72 1577.64 715.53"/>
    <path class="cls-12" d="M1582.62,703.11l-14.82,75.21s-.37,26.96,21.8,49.74l-2.24,9.49,4.74,1.12-2.49,8.43,12.67,1.49,.87-5.8,3.18-.75,1.18-9.24s31.64-13.05,42.49-33.53l17.85-78.35-85.24-17.81Z"/>
    <g>
      <polygon class="cls-12" points="1628.81 880.41 1627.13 873.29 1616.78 875.73 1617.51 883.08 1628.81 880.41"/>
      <path class="cls-12" d="M1603.02,851.77l-2.31-5.05-10.82-.61-4.29,3.05-3.12,15.29-26.76,6.31s-3.2-.37-4.07,5.44c0,0-5.75,.24-6.47,1.52s-.21,3.41,6.65,4.03c0,0-.87,5.8,2.25,9.55,0,0-7.05,3.63-5.02,4.97,0,0,2.03,1.33,6.27,.34,0,0,2.31,5.05,6.55,4.05l39.02-9.19,5.79-19.28s-.99,33.83,.83,55.8c0,0,3.75,15.91-2.99,25.34,0,0,5.55-.19,10.98-10.43,0,0,5.48-52.81,3.91-73.71l3.18-.75s4.56,14.6,6.37,17.54c0,0-.81,1.31-2.43,3.93l-2.93,1.81-3.18,.75,.47,1.69,4.03-.95,2.86,2,.5,2.12,11.92-1.69s27.48,40.56,18.68,45.99c0,0-8.55,6.49-13.35,9.87,0,0-3.24,5.24,3.12,3.74,0,0,9.86-5.68,12.92,2.55l17.99,38.32s1.44,10.86,13.17,3.62c0,0,7.48-5.25,10.2-1.35,0,0,3.28,1.53,6.21-.28l1.62,6.89s2-1.02,3.56,.85c0,0,11.18,33.2,28.35,34.76,0,0,46.57,17.02,38.56-55,0,0-9.25-39.26,7.41-58.86,0,0,11.19-9.55-2.15-9.11,0,0-20.19,18.86-15.38,53.56,0,0,17.49,55.23-14.34,62.73,0,0-20.22,9.24-36.59-31.7,0,0,.06-4.49-2.56-6.12l2.43-3.93-37.79-79.57s-5.99-6.43,5.18-11.3c0,0,15.23-11.43,.37-7.93,0,0-14.1,6.68-12.42-.43l3.18-.75-3-12.73-3.18,.75-1.75-7.43,6.37-1.5-1.25-5.3-5.3,1.25-1-4.24s2.18-4.99-14.54,.07l-3.94-21.47s-2.79-9.02-21.09-4.91c0,0-10.06,1.05-15.36,2.3l-2.18,4.99-4.49-.06,1,4.24-5.87,3.62Z"/>
    </g>
    <g>
      <path class="cls-12" d="M1554.66,869.89s.18,.32,.49,.92c2.14,4.15,10.38,21.44,5.14,32.48,0,0,7.37,2.74,22.78-3.13,0,0,2.43-22.97-7.69-37.38,0,0-17.16-.44-21.34,5.03,0,0,.12-.03,.62,2.09Z"/>
      <rect class="cls-6" x="1555.86" y="865.64" width="19.62" height="2.18" rx=".53" ry=".53" transform="translate(-157.05 382.18) rotate(-13.26)"/>
      <rect class="cls-6" x="1558.42" y="871.76" width="19.62" height="2.18" rx=".53" ry=".53" transform="translate(-158.38 382.93) rotate(-13.26)"/>
      <rect class="cls-6" x="1560.98" y="877.88" width="19.62" height="2.18" rx=".53" ry=".53" transform="translate(-159.72 383.68) rotate(-13.26)"/>
      <rect class="cls-6" x="1561.42" y="884.49" width="19.62" height="2.18" rx=".53" ry=".53" transform="translate(-161.22 383.96) rotate(-13.26)"/>
      <rect class="cls-6" x="1561.86" y="891.11" width="19.62" height="2.18" rx=".53" ry=".53" transform="translate(-162.73 384.24) rotate(-13.26)"/>
      <rect class="cls-6" x="1563.39" y="897.72" width="17.44" height="2.18" rx=".53" ry=".53" transform="translate(-164.23 384.52) rotate(-13.26)"/>
    </g>
    <g>
      <rect class="cls-12" x="1674.01" y="860.56" width="13.08" height="13.08" rx="3.18" ry="3.18" transform="translate(-154.07 408.54) rotate(-13.26)"/>
      <rect class="cls-6" x="1674.64" y="862.31" width="9.81" height="1.09" transform="translate(-153.12 408.2) rotate(-13.26)"/>
      <rect class="cls-6" x="1675.14" y="864.44" width="9.81" height="1.09" transform="translate(-153.6 408.37) rotate(-13.26)"/>
      <rect class="cls-6" x="1675.64" y="866.56" width="9.81" height="1.09" transform="translate(-154.07 408.54) rotate(-13.26)"/>
      <rect class="cls-6" x="1676.14" y="868.68" width="9.81" height="1.09" transform="translate(-154.54 408.71) rotate(-13.26)"/>
      <rect class="cls-6" x="1676.64" y="870.8" width="9.81" height="1.09" transform="translate(-155.02 408.88) rotate(-13.26)"/>
    </g>
    <g>
      <rect class="cls-12" x="1677" y="880.47" width="8.72" height="8.72" rx="1.91" ry="1.91" transform="translate(-158.12 409.2) rotate(-13.26)"/>
      <rect class="cls-6" x="1677.89" y="881.1" width="5.45" height="1.09" transform="translate(-157.41 408.94) rotate(-13.26)"/>
      <rect class="cls-6" x="1678.39" y="883.22" width="5.45" height="1.09" transform="translate(-157.88 409.11) rotate(-13.26)"/>
      <rect class="cls-6" x="1678.89" y="885.34" width="5.45" height="1.09" transform="translate(-158.35 409.29) rotate(-13.26)"/>
      <rect class="cls-6" x="1679.39" y="887.47" width="5.45" height="1.09" transform="translate(-158.83 409.46) rotate(-13.26)"/>
    </g>
  </g>
</svg>