<?xml version="1.0" encoding="UTF-8"?>
<svg id="LOGO_1" data-name="LOGO 1" xmlns="http://www.w3.org/2000/svg" xmlns:xlink="http://www.w3.org/1999/xlink" viewBox="0 0 2160.17 1454.08">
  <defs>
    <style>
      .cls-1 {
        fill: url(#Degradado_sin_nombre_221);
      }

      .cls-2, .cls-3 {
        fill: #fff;
      }

      .cls-4 {
        fill: url(#Degradado_sin_nombre_240-5);
        stroke: url(#Degradado_sin_nombre_242-4);
      }

      .cls-4, .cls-5, .cls-6, .cls-7, .cls-8, .cls-9, .cls-3, .cls-10, .cls-11 {
        stroke-miterlimit: 10;
      }

      .cls-12 {
        letter-spacing: -.03em;
      }

      .cls-5 {
        fill: url(#Degradado_sin_nombre_240-6);
        stroke: url(#Degradado_sin_nombre_242-5);
      }

      .cls-13 {
        letter-spacing: -.06em;
      }

      .cls-14 {
        letter-spacing: 0em;
      }

      .cls-15 {
        letter-spacing: 0em;
      }

      .cls-6 {
        fill: #adadad;
      }

      .cls-6, .cls-7, .cls-3 {
        stroke: #000;
        stroke-width: 3px;
      }

      .cls-16 {
        fill: #ff302e;
      }

      .cls-17 {
        fill: url(#Degradado_sin_nombre_221-2);
      }

      .cls-7 {
        fill: #bbbcb9;
      }

      .cls-8 {
        fill: url(#Degradado_sin_nombre_240-4);
        stroke: url(#Degradado_sin_nombre_242-3);
      }

      .cls-18 {
        fill: #ff5d25;
        font-family: HankenGrotesk-Black, 'Hanken Grotesk';
        font-size: 217.35px;
        font-variation-settings: 'wght' 900;
      }

      .cls-9 {
        fill: url(#Degradado_sin_nombre_240-2);
        stroke: url(#Degradado_sin_nombre_242);
      }

      .cls-19 {
        fill: #0d0805;
      }

      .cls-20 {
        fill: url(#Degradado_sin_nombre_221-3);
      }

      .cls-10 {
        fill: url(#Degradado_sin_nombre_240-7);
        stroke: url(#Degradado_sin_nombre_242-6);
      }

      .cls-21 {
        fill: url(#Degradado_sin_nombre_240);
      }

      .cls-22 {
        fill: #ff0;
      }

      .cls-11 {
        fill: url(#Degradado_sin_nombre_240-3);
        stroke: url(#Degradado_sin_nombre_242-2);
      }
    </style>
    <linearGradient id="Degradado_sin_nombre_221" data-name="Degradado sin nombre 221" x1="376.69" y1="905.77" x2="1713.18" y2="905.77" gradientUnits="userSpaceOnUse">
      <stop offset="0" stop-color="#ff0"/>
      <stop offset=".13" stop-color="#ff4c28"/>
      <stop offset=".36" stop-color="#ffba0f"/>
      <stop offset=".54" stop-color="#ff302e"/>
      <stop offset=".55" stop-color="#f33230"/>
      <stop offset=".57" stop-color="#cf3b3a"/>
      <stop offset=".6" stop-color="#ae4342"/>
      <stop offset=".63" stop-color="#934949"/>
      <stop offset=".66" stop-color="#7d4f4e"/>
      <stop offset=".7" stop-color="#6c5352"/>
      <stop offset=".75" stop-color="#605555"/>
      <stop offset=".81" stop-color="#595757"/>
      <stop offset="1" stop-color="#585858"/>
    </linearGradient>
    <linearGradient id="Degradado_sin_nombre_221-2" data-name="Degradado sin nombre 221" x1="338.22" y1="948.72" x2="648.35" y2="948.72" xlink:href="#Degradado_sin_nombre_221"/>
    <linearGradient id="Degradado_sin_nombre_221-3" data-name="Degradado sin nombre 221" x1="1456.72" y1="975.13" x2="1659.58" y2="975.13" xlink:href="#Degradado_sin_nombre_221"/>
    <linearGradient id="Degradado_sin_nombre_240" data-name="Degradado sin nombre 240" x1="1696.34" y1="762.41" x2="1697.61" y2="1001.24" gradientUnits="userSpaceOnUse">
      <stop offset=".32" stop-color="#ff0"/>
      <stop offset=".92" stop-color="#ff302e"/>
    </linearGradient>
    <linearGradient id="Degradado_sin_nombre_240-2" data-name="Degradado sin nombre 240" x1="1735.18" y1="984.24" x2="1743.23" y2="984.24" gradientTransform="translate(230.14 -325.83) rotate(11.46)" xlink:href="#Degradado_sin_nombre_240"/>
    <linearGradient id="Degradado_sin_nombre_242" data-name="Degradado sin nombre 242" x1="1734.68" y1="984.24" x2="1743.73" y2="984.24" gradientTransform="translate(230.14 -325.83) rotate(11.46)" gradientUnits="userSpaceOnUse">
      <stop offset=".32" stop-color="#ff0"/>
      <stop offset=".92" stop-color="#ff302e"/>
    </linearGradient>
    <linearGradient id="Degradado_sin_nombre_240-3" data-name="Degradado sin nombre 240" x1="1707.83" y1="976.02" x2="1714.69" y2="976.02" gradientTransform="translate(158.04 -235.81) rotate(8.26)" xlink:href="#Degradado_sin_nombre_240"/>
    <linearGradient id="Degradado_sin_nombre_242-2" data-name="Degradado sin nombre 242" x1="1707.33" y1="976.02" x2="1715.19" y2="976.02" gradientTransform="translate(158.04 -235.81) rotate(8.26)" xlink:href="#Degradado_sin_nombre_242"/>
    <linearGradient id="Degradado_sin_nombre_240-4" data-name="Degradado sin nombre 240" x1="1561.86" y1="951.26" x2="1567.73" y2="951.26" gradientTransform="translate(259.88 -333.52) rotate(13.26)" xlink:href="#Degradado_sin_nombre_240"/>
    <linearGradient id="Degradado_sin_nombre_242-3" data-name="Degradado sin nombre 242" x1="1561.36" y1="951.26" x2="1568.23" y2="951.26" gradientTransform="translate(259.88 -333.52) rotate(13.26)" xlink:href="#Degradado_sin_nombre_242"/>
    <linearGradient id="Degradado_sin_nombre_240-5" data-name="Degradado sin nombre 240" x1="1581.9" y1="945.64" x2="1592.23" y2="945.64" gradientTransform="translate(259.18 -338.78) rotate(13.26)" xlink:href="#Degradado_sin_nombre_240"/>
    <linearGradient id="Degradado_sin_nombre_242-4" data-name="Degradado sin nombre 242" x1="1581.4" y1="945.64" x2="1592.73" y2="945.64" gradientTransform="translate(259.18 -338.78) rotate(13.26)" xlink:href="#Degradado_sin_nombre_242"/>
    <linearGradient id="Degradado_sin_nombre_240-6" data-name="Degradado sin nombre 240" x1="1695.07" y1="939.83" x2="1709.27" y2="939.83" xlink:href="#Degradado_sin_nombre_240"/>
    <linearGradient id="Degradado_sin_nombre_242-5" data-name="Degradado sin nombre 242" x1="1694.57" y1="939.31" x2="1709.77" y2="939.31" gradientTransform="matrix(1, 0, 0, 1, 0, 0)" xlink:href="#Degradado_sin_nombre_242"/>
    <linearGradient id="Degradado_sin_nombre_240-7" data-name="Degradado sin nombre 240" x1="1702.86" y1="937.32" x2="1792.25" y2="937.32" xlink:href="#Degradado_sin_nombre_240"/>
    <linearGradient id="Degradado_sin_nombre_242-6" data-name="Degradado sin nombre 242" x1="1702.36" y1="936.99" x2="1792.75" y2="936.99" gradientTransform="matrix(1, 0, 0, 1, 0, 0)" xlink:href="#Degradado_sin_nombre_242"/>
  </defs>
  <g>
    <path class="cls-1" d="M376.69,825.19s337.51-67.5,388.14,151.88c0,0,16.88,33.75,118.13,50.63,0,0,219.38,50.63,270.01,33.75,0,0-219.38,0-286.88-67.5,0,0-23.56-23.23-45.53-53.8,0,0-5.1-30.57-38.85-64.33,0,0,0-16.88,185.63,33.75,0,0,270.01,67.5,455.64,0,185.63-67.5,253.13-16.88,253.13-16.88,0,0,16.02-42.41-34.61,8.22,0,0,47.24-87.56,64.11-70.69,0,0,54.87,28.72-130.76,28.72,0,0-101.25,0-219.38,33.75,0,0-118.13,50.63-523.14-33.75,0,0-202.51-50.63,0-16.88l101.25,16.88-50.63-16.88s-202.51-101.25,337.51-50.63c0,0,202.51,33.75,219.38,50.63,0,0-67.5-67.5-270.01-84.38,0,0-202.51-33.75-303.76,16.88,0,0-202.51,50.63-286.88,33.75,0,0-84.38-16.88-202.51,16.88Z"/>
    <path class="cls-17" d="M646.7,1010.82s-38.95-88.98-118.13-118.13c-31.26-11.51-67.5,0-67.5,0,0,0-84.38,33.75-101.25,135,0,0-33.75-84.38-16.88-135,0,0,2.34,50.63,26.48,67.5,0,0,57.89-118.13,176.02-84.38,0,0,118.13,33.75,101.25,135"/>
    <path class="cls-20" d="M1456.72,1044.57s13.37-142.58,133.25-138.79c0,0,52.73-1.68,69.61,65.82,0,0-118.48-146.41-202.86,72.97Z"/>
  </g>
  <g>
    <polygon class="cls-19" points="1906.17 631.3 1914.39 613.22 2040.97 672.4 2031.11 690.48 1906.17 631.3"/>
    <path class="cls-19" d="M1917.77,614.8l-47.77,105.28s-9.86,39.45,14.8,80.55l-6.58,13.15,6.58,3.29-6.58,11.51,18.08,6.58,3.29-8.22h4.93l4.93-13.15s50.96-8.22,73.98-34.52l53.3-108.83-118.97-55.62Z"/>
    <g>
      <polygon class="cls-19" points="1924.25 891.04 1924.25 880 1908.21 880 1906.75 891.04 1924.25 891.04"/>
      <path class="cls-19" d="M1896.31,840.08l-1.64-8.22-15.67-4.64-7.35,2.99-9.86,21.37h-41.46s-4.57-1.64-7.85,6.58c0,0-8.53-1.64-10.02,0s-1.49,4.93,8.37,8.22c0,0-3.29,8.22,0,14.8,0,0-11.61,2.9-9.09,5.56,0,0,2.52,2.66,9.09,2.66,0,0,1.64,8.22,8.22,8.22h60.46l15.16-26.3s-13.15,49.32-18.08,82.2c0,0,0,24.66-13.15,36.17,0,0,8.22,1.64,19.73-11.51,0,0,26.3-75.62,31.23-106.86h4.93s1.64,23.02,3.29,27.95c0,0-1.64,1.64-4.93,4.93l-4.93,1.64h-4.93l.11,2.65h6.25l3.51,3.93v3.29l18.08,1.64s26.3,69.05,11.51,73.98c0,0-14.8,6.58-23.02,9.86,0,0-6.58,6.58,3.29,6.58,0,0,16.44-4.93,18.08,8.22l13.15,62.47s-1.64,16.44,18.08,9.86c0,0,12.79-5.11,15.44,1.55,0,0,4.29,3.38,9.22,1.74v10.67s3.29-.81,4.93,2.48c0,0,4.93,52.61,29.59,60.83,0,0,62.47,41.1,75.62-67.4,0,0,0-60.83,31.23-83.84,0,0,19.73-10.15,0-14.12,0,0-36.17,20.69-41.1,73.3,0,0,6.58,87.13-42.74,87.13,0,0-32.88,6.58-42.74-59.18,0,0,1.64-6.58-1.64-9.86l4.93-4.93-27.95-129.87s-6.58-11.51,11.51-14.8c0,0,26.3-11.51,3.29-11.51,0,0-23.02,4.93-18.08-4.93h4.93v-19.73h-4.93v-11.51h9.86v-8.22h-8.22v-6.58s4.93-6.58-21.37-4.93l1.64-32.88s-.98-14.21-29.26-14.5c0,0-15.13-1.94-23.35-1.94l-4.93,6.58-6.58-1.64v6.58l-9.86,3.29Z"/>
    </g>
    <g>
      <path class="cls-19" d="M1819.04,849.95s.15,.54,.4,1.51c1.71,6.83,7.82,35.06-3.69,49.45,0,0,9.86,6.58,34.52,3.29,0,0,11.51-32.88,1.64-57.54,0,0-25.03-6.58-33.07,0,0,0,.19,0,.19,3.29Z"/>
      <rect class="cls-2" x="1821.51" y="847.48" width="29.59" height="3.29" rx=".61" ry=".61"/>
      <rect class="cls-2" x="1823.15" y="857.34" width="29.59" height="3.29" rx=".61" ry=".61"/>
      <rect class="cls-2" x="1824.79" y="867.21" width="29.59" height="3.29" rx=".61" ry=".61"/>
      <rect class="cls-2" x="1823.15" y="877.07" width="29.59" height="3.29" rx=".61" ry=".61"/>
      <rect class="cls-2" x="1821.51" y="886.93" width="29.59" height="3.29" rx=".61" ry=".61"/>
      <rect class="cls-2" x="1821.51" y="896.8" width="26.3" height="3.29" rx=".61" ry=".61"/>
    </g>
    <g>
      <rect class="cls-19" x="1994.94" y="879.54" width="19.73" height="19.73" rx="3.64" ry="3.64"/>
      <rect class="cls-2" x="1997.41" y="882" width="14.8" height="1.64"/>
      <rect class="cls-2" x="1997.41" y="885.29" width="14.8" height="1.64"/>
      <rect class="cls-2" x="1997.41" y="888.58" width="14.8" height="1.64"/>
      <rect class="cls-2" x="1997.41" y="891.87" width="14.8" height="1.64"/>
      <rect class="cls-2" x="1997.41" y="895.15" width="14.8" height="1.64"/>
    </g>
    <g>
      <rect class="cls-19" x="1993.3" y="909.13" width="13.15" height="13.15" rx="1.91" ry="1.91"/>
      <rect class="cls-2" x="1995.76" y="909.95" width="8.22" height="1.64"/>
      <rect class="cls-2" x="1995.76" y="913.24" width="8.22" height="1.64"/>
      <rect class="cls-2" x="1995.76" y="916.52" width="8.22" height="1.64"/>
      <rect class="cls-2" x="1995.76" y="919.81" width="8.22" height="1.64"/>
    </g>
  </g>
  <g>
    <path class="cls-21" d="M1809.45,872.49s-23.92-.35-32.23-11.86c0,0-15.53-9.86-47.27-1.64,0,0-27.63,5.75-14.48-22.19,0,0,18.08-16.44,21.37-29.59,0,0,1.64-14.8,6.58-14.8,0,0,9.86-14.8-1.64-18.08,0,0,0-6.58,4.93-14.8,0,0,1.64-11.51-3.29-18.08,0,0,0-24.66-4.93-29.59,0,0-31.22-82.18,22.2-115.07,0,0,10.68-8.23,27.12-8.23,0,0,13.15,3.29,16.44-6.58,0,0-1.64-9.86-14.8-1.64,0,0-3.29,1.64-6.58,4.93,0,0-19.73,3.29-36.17,18.08,0,0-13.15,8.22-13.15,0,0,0,0-8.22-3.29,0,0,0-4.93,27.95-11.51,27.95,0,0-4.77-.13-2.38-16.5,0,0,4.03-24.6,30.33-34.46,0,0,27.95-11.51,26.3-29.59,0,0-6.58-14.8-18.08-3.29,0,0-6.58,6.58-6.58,13.15,0,0,1.64,8.22-6.58,9.86,0,0-16.44,1.64-27.95,32.88,0,0-3.29,6.58-6.58,6.58,0,0-4.93,1.64-3.29,9.86,0,0,4.93,29.59-4.93,49.32,0,0-18.08,6.58-14.8,26.3,0,0-1.64,11.51-13.15-3.29,0,0-13.15-11.51-18.08-21.37,0,0-1.64-6.58-8.22-4.93-6.58,1.64-3.29-6.58-3.29-6.58,0,0,1.64-2.16-.82-6.01,0,0-4.11-5.49,2.47-8.78,0,0,4.93-8.22-6.58-3.29,0,0-11.51,4.93-13.15-8.22,0,0,4.93-5.42,0-10.11,0,0-3.29-3.04-4.93,3.53,0,0-4.93,3.29-6.58-4.93,0,0,1.64-13.15-1.64-18.08,0,0-4.93-9.86-11.51,0,0,0-4.93,6.58,8.22,11.51,0,0,4.93,6.58,1.64,16.44,0,0-8.22,1.64-6.58,4.93,0,0,4.93,3.29,9.86-1.64,0,0,4.93,0,3.29,4.93,0,0-1.64,6.58,6.58,8.22,8.22,1.64,8.22,14.8,8.22,14.8,0,0,1.64,1.64,3.29,0,0,0,4.93,4.93,1.64,14.8-3.29,9.86,3.29,4.93,3.29,4.93,0,0,16.44,3.29-1.64,27.95,0,0-3.29,4.93,1.64,6.58,4.93,1.64,36.17,23.02,16.44,47.67,0,0-4.93,8.22,0,19.73,0,0,6.58,24.66-23.02,37.81,0,0-24.66-1.64-26.3,8.22-1.64,9.86,13.15,6.58,13.15,6.58,0,0,9.86-11.51,14.8-4.93,4.93,6.58-1.64,13.15-1.64,13.15,0,0-19.73,19.73-27.95,19.73,0,0-8.22-1.64-16.44,1.64-8.22,3.29,0,10.69,0,10.69,0,0,6.58,5.75,16.44-5.75,0,0,11.56-10.27,8.24,7.19,0,0,1.62,12.54-21.4,25.69-23.02,13.15-8.22,16.44-8.22,16.44,0,0,8.22,1.64,14.8-11.51,6.58-13.15,9.86-9.86,9.86-9.86,0,0,3.29,4.93-3.29,9.86,0,0-4.93,4.93,1.64,6.58,6.58,1.64,9.86-3.29,9.86-3.29,0,0,3.29-6.58,0-14.8-3.29-8.22,9.86-4.93,9.86-4.93,0,0,9.86,0,0,14.8,0,0-3.29,6.58-3.29,23.02,0,0-4.93,4.93-9.86,16.44,0,0-4.93,9.86,0,11.51,4.93,1.64,6.58-4.93,6.58-4.93,0,0-1.64-11.51,4.93-9.86,6.58,1.64,4.93,13.15,4.93,13.15,0,0,0,11.51-6.58,21.37-6.58,9.86-4.93,39.45-4.93,39.45l1.64,36.17s3.29,21.37-9.86,23.02c-13.15,1.64,0,11.51,0,11.51,0,0,18.08,3.29,14.8-19.73-3.29-23.02,3.29-23.02,3.29-23.02,0,0,3.29-1.64,4.93,13.15,0,0,1.64,6.58,6.58,9.86,0,0,3.29,6.58,1.64,13.15,0,0,1.64,8.22,6.58,0,0,0,1.64-4.93,0-9.86-1.64-4.93,8.22,1.64,8.22,1.64,0,0,14.8,13.15,19.73,6.58,4.93-6.58-3.29-8.22-3.29-8.22,0,0-18.08,3.29-23.02-8.22-4.93-11.51-11.51-13.15-6.58-18.08,0,0,3.29,0,4.93,3.29,1.64,3.29,4.93,6.58,8.22,3.29s-1.64-6.58-1.64-6.58c0,0-24.66-14.8-18.08-23.02,0,0,8.22,1.64,4.93-6.58,0,0-16.44-32.88-3.29-34.52,0,0,14.8,9.86,13.15,23.02,0,0-1.64,24.66,3.29,26.3,0,0,6.58,4.93,9.86-4.93,0,0,0-8.22-4.93-13.15-4.93-4.93,3.29-8.22,3.29-8.22,0,0,6.58-3.29,8.22,9.86,0,0,6.58,9.86,6.58,14.8,0,0,1.64,27.95,9.86,36.17,0,0,3.29,4.93,1.64,8.22-1.64,3.29,1.64,11.51,1.64,11.51,0,0,6.58,9.86,16.44,18.08,9.86,8.22,13.15,19.73,13.15,19.73,0,0,1.64,14.8,9.86,18.08,8.22,3.29,9.86,11.51,9.86,11.51,0,0,1.64,4.93,6.58,1.64,4.93-3.29,16.44,14.8,16.44,14.8,0,0,3.29,13.15,1.64,26.3,0,0-8.22,13.15-1.64,13.15s9.86-6.58,9.86-6.58c0,0,0-9.86-3.29-13.15-3.29-3.29,1.51-20.9,7.33-15.38,5.82,5.52,4.17,13.74,4.17,13.74,0,0-3.29,9.86,4.93,4.93,8.22-4.93,4.93,0,4.93,0,0,0-3.29,6.58,4.93,3.29,8.22-3.29,1.64-9.86,1.64-9.86,0,0-19.73-8.22-4.93-16.44,0,0,2.98-2.21,14.64-.28,11.66,1.93,1.8-12.87,1.8-12.87,0,0-6.58-6.58-11.51,4.93,0,0-8.22,8.22-16.44-6.58,0,0-4.93-6.58,9.86-6.58,0,0,4.93,3.29,6.58,0s-1.64-6.58-1.64-6.58c0,0-9.86-1.64-14.8,1.64-4.93,3.29-21.37-3.29-23.02-9.86-1.64-6.58,4.93,0,4.93,0,0,0,13.15,6.58,9.86-6.58s-19.73-6.58-19.73-6.58c0,0-14.8,4.93-23.02-21.37,0,0,0-13.15-19.73-18.08,0,0-9.86-3.29-13.15-16.44-3.29-13.15,1.64-19.73,1.64-19.73,0,0,1.64-6.58,16.44,8.22s19.73,14.8,19.73,14.8c0,0,14.8,0,1.64-13.15,0,0-8.22-4.93-16.44-3.29,0,0-11.51-1.64-27.95-24.66,0,0-13.15-42.74,0-31.23,0,0,6.58,16.44,32.88,37.81,26.3,21.37,39.45,27.95,39.45,27.95,0,0,24.66,13.15,34.52,6.58s1.64-14.8,1.64-14.8c0,0-6.58-4.93-19.73-1.64-13.15,3.29-31.23-6.58-31.23-6.58,0,0-57.98-24.66-67.62-121.65,0,0,.25-31.23,38.87-32.06,0,0,21.72-5.2,34.28-14.52,0,0,19.13-7.67,30.64,2.19,0,0,24.66,3.84,31.23-2.19,0,0,3.84-2.05-6.3-3.22Z"/>
    <path class="cls-22" d="M1773.01,708.57s26.08-34.41,43.45-37.75,14.08,6.52,14.08,6.52c0,0,.83,10.87-16.02,12.01-16.85,1.14-41.51,19.22-41.51,19.22Z"/>
    <path class="cls-22" d="M1759.16,798.77s14.01,14.49,22.25,15.07c8.24,.58,6.16-3.81,6.16-3.81,0,0-.22-5.09-8.1-4.67-7.87,.41-20.31-6.59-20.31-6.59Z"/>
    <path class="cls-22" d="M1747.62,696.14s-4.51-26.25,1.3-35.49c5.81-9.24,8.87-3.6,8.87-3.6,0,0,5.25,4.21-1.34,12.28s-8.83,26.81-8.83,26.81Z"/>
    <path class="cls-22" d="M1761.8,763.43s5-1.27,6.87-.28,.83,1.66,.83,1.66c0,0-.73,1.08-2.39-.07-1.66-1.15-5.31-1.3-5.31-1.3Z"/>
    <path class="cls-22" d="M1673.65,678.69s-5.88-16.1-3.26-22.61c2.62-6.51,5.2-3.3,5.2-3.3,0,0,3.81,2.06,.57,7.93-3.24,5.87-2.51,17.98-2.51,17.98Z"/>
    <path class="cls-22" d="M1621.08,669.82s-20.56-3.16-25.96-9.75-.47-7.46-.47-7.46c0,0,4.42-2.85,8.76,4.03,4.35,6.88,17.67,13.18,17.67,13.18Z"/>
    <path class="cls-16" d="M1611.98,988.16s-2.72,11.6-6.72,14.4c-4.01,2.79-4.28-.06-4.28-.06,0,0-1.43-2.65,2.69-4.83,4.12-2.18,8.31-9.51,8.31-9.51Z"/>
    <path class="cls-16" d="M1732.61,1008.96s12.79,13.71,20.44,14.38c7.65,.68,5.79-3.44,5.79-3.44,0,0-.12-4.73-7.45-4.48-7.33,.25-18.78-6.46-18.78-6.46Z"/>
    <path class="cls-22" d="M1610.29,747.39s-8.6-5.05-12.6-4.24c-4,.81-2.43,2.63-2.43,2.63,0,0,.78,2.39,4.48,1.16s10.56,.45,10.56,.45Z"/>
    <ellipse class="cls-22" cx="1790.27" cy="661.71" rx="4.11" ry="5.75"/>
    <ellipse class="cls-22" cx="1787.81" cy="747.2" rx="8.22" ry="5.75"/>
    <ellipse class="cls-22" cx="1748.35" cy="817.89" rx="2.47" ry="3.52" transform="translate(112.95 1843.13) rotate(-57.15)"/>
    <ellipse class="cls-22" cx="1797.67" cy="837.62" rx="3.52" ry="2.47" transform="translate(-130.55 373.74) rotate(-11.46)"/>
    <ellipse class="cls-22" cx="1740.85" cy="841.22" rx="7.56" ry="5.29" transform="translate(-132.4 362.53) rotate(-11.46)"/>
    <ellipse class="cls-22" cx="1772.09" cy="882.32" rx="4.53" ry="3.17" transform="translate(-139.94 369.55) rotate(-11.46)"/>
    <ellipse class="cls-22" cx="1745.78" cy="893.82" rx="6.6" ry="4.62" transform="translate(-142.75 364.56) rotate(-11.46)"/>
    <ellipse class="cls-9" cx="1739.21" cy="984.24" rx="4.06" ry="2.84" transform="translate(-160.84 365.05) rotate(-11.46)"/>
    <ellipse class="cls-11" cx="1711.26" cy="976.02" rx="3.39" ry="4.84" transform="translate(-122.51 256.07) rotate(-8.26)"/>
    <ellipse class="cls-22" cx="1833.84" cy="693.77" rx="1.64" ry="4.93"/>
    <ellipse class="cls-22" cx="1779.59" cy="618.97" rx="3.29" ry="4.11"/>
    <ellipse class="cls-22" cx="1662.87" cy="637.88" rx="2.63" ry="3.29"/>
    <ellipse class="cls-22" cx="1620.12" cy="693.77" rx="4.93" ry="3.29"/>
    <ellipse class="cls-22" cx="1644.78" cy="764.46" rx="4.93" ry="3.29" transform="translate(-131.48 397.6) rotate(-13.26)"/>
    <ellipse class="cls-22" cx="1576.3" cy="893.73" rx="5.62" ry="3.75" transform="translate(-162.96 385.34) rotate(-13.26)"/>
    <ellipse class="cls-8" cx="1564.8" cy="951.26" rx="2.98" ry="1.99" transform="translate(-176.46 384.24) rotate(-13.26)"/>
    <ellipse class="cls-4" cx="1587.07" cy="945.64" rx="5.24" ry="3.49" transform="translate(-174.57 389.19) rotate(-13.26)"/>
    <ellipse class="cls-16" cx="1593.64" cy="1026.19" rx="5.24" ry="3.49" transform="translate(-234.28 1527.64) rotate(-48.12)"/>
    <ellipse class="cls-16" cx="1585.81" cy="1092.3" rx="5.24" ry="4.02" transform="translate(-286.1 1543.79) rotate(-48.12)"/>
    <ellipse class="cls-16" cx="1654.86" cy="1108.74" rx="4.02" ry="5.24" transform="translate(-251.42 530.86) rotate(-16.96)"/>
    <ellipse class="cls-16" cx="1791.31" cy="1126.82" rx="4.02" ry="5.24" transform="translate(-250.77 571.44) rotate(-16.96)"/>
    <ellipse class="cls-16" cx="1769.08" cy="1082.81" rx="7.73" ry="6.71" transform="translate(-300.99 952.72) rotate(-27.87)"/>
    <ellipse class="cls-16" cx="1812.68" cy="1176.14" rx="2.24" ry="2.91" transform="translate(-264.22 579.82) rotate(-16.96)"/>
    <ellipse class="cls-22" cx="1623.41" cy="800.63" rx="2.35" ry="1.57" transform="translate(-140.35 393.66) rotate(-13.26)"/>
    <ellipse class="cls-22" cx="1692.46" cy="568.83" rx="1.64" ry="2.05"/>
    <ellipse class="cls-22" cx="1717.12" cy="558.97" rx="4.93" ry="6.16"/>
    <path class="cls-22" d="M1674.37,606.64s-3.29-6.58,3.29-6.58-1.64-8.22-1.64-8.22c0,0-13.15-8.22-13.15,4.93s9.86,21.37,9.86,21.37c0,0,11.51,4.93,1.64-11.51"/>
    <path class="cls-22" d="M1649.72,741.45s-11.51-9.86-11.51-14.8-6.58-3.29-6.58-3.29c0,0-13.42,2.36-14.93-7.04s-8.09-6.11-8.09-6.11c0,0-6.51,5.08,1.68,11.58,8.19,6.5,19.69,4.86,19.69,4.86,0,0,4.93-1.64,9.86,8.22s9.86,6.58,9.86,6.58Z"/>
    <path class="cls-16" d="M1694.1,1109.69s4.93,18.08,1.64,41.1c0,0,8.98,21.37,16.82,0,7.84-21.37-18.47-41.1-18.47-41.1Z"/>
    <path class="cls-5" d="M1695.9,927.65s3.95,8.9,12.82,17.1c0,0,3.39,11.56-6.78,5.52-10.17-6.04-6.05-22.62-6.05-22.62Z"/>
    <path class="cls-16" d="M1746.42,1165.77s-.86,7.46-5.51,15.52c0,0,.16,9.28,6.25,2.51,6.1-6.78-.74-18.03-.74-18.03Z"/>
    <path class="cls-10" d="M1704.06,903.44s3.09,32.43,48.35,47.83c0,0,27.17-2.68,37.04,8.82,9.86,11.51-9.5,11.11-9.5,11.11,0,0-30.05-3.95-57.13-31.37s-18.76-36.39-18.76-36.39Z"/>
  </g>
  <g>
    <g>
      <path class="cls-7" d="M436,1294.09l5.05-22.33-28.74-18.25-8.74,9.13,14.95,15.34-2.91,10.29-8.74,3.5-16.89-15.92-8.74,8.35,19.42,28.74,21.94-3.88,80.19,86.02s22.33,9.32,21.55-17.09l-88.35-83.88Z"/>
      <g>
        <polygon class="cls-3" points="478.71 1286.91 444.54 1322.25 456.87 1334.59 491.53 1298.56 478.71 1286.91"/>
        <path class="cls-3" d="M446.63,1318.95l12.48,13.32s3.1,4.74-4.47,10.37l-45.44,47.96s-4.85,4.27-9.71,.58l-13.59-14.56s-2.52-4.08,3.5-8.35l47.77-46.21s3.79-4.86,9.47-3.11Z"/>
        <path class="cls-6" d="M476.19,1277.78s.39-18.06-26.6-19.42c0,0-5.63-1.75-1.36-5.44,0,0,15.92-5.63,33.98,.97,0,0,7.77,2.72,20.39,17.86,0,0,12.23,9.13,16.5,20.78,0,0,2.33,5.44,3.3,5.44,0,0,3.69-2.91,10.1,2.91,0,0,5.24,8.16-2.14,13.01l-9.68,10.01s-4.56,3.02-9,0c0,0-8.9-4.18-3.27-13.89,0,0-3.5-6.21-6.8-6.21,0,0-5.23,1.36-11.16-.77l-15.04-15.06s-2.53-4.75,.77-10.19Z"/>
      </g>
    </g>
    <text class="cls-18" transform="translate(568.93 1398.23)"><tspan x="0" y="0">Au</tspan><tspan class="cls-15" x="276.9" y="0">t</tspan><tspan class="cls-14" x="357.53" y="0">o </tspan><tspan class="cls-13" x="537.71" y="0">W</tspan><tspan x="741.14" y="0">or</tspan><tspan class="cls-12" x="960.22" y="0">k</tspan><tspan x="1078.68" y="0">er</tspan></text>
  </g>
</svg>